<svg version="1.2" xmlns="http://www.w3.org/2000/svg" viewBox="0 0 92 92" width="92" height="92">
	<style>
		.s0 { fill: #58a6ff } 
		.s1 { fill: #040f15 } 
	</style>
	<g id="Layer 1">
		<g id="-e-sigea logo">
			<g id="&lt;Group&gt;">
				<path id="&lt;Path&gt;" class="s0" d="m91.71 46c0-25.25-20.46-45.71-45.71-45.71-25.25 0-45.71 20.46-45.71 45.71 0 25.25 20.46 45.71 45.71 45.71 25.25 0 45.71-20.46 45.71-45.71z"/>
				<path id="&lt;Path&gt;" class="s1" d="m88.95 46c0-23.72-19.23-42.95-42.95-42.95-23.72 0-42.95 19.23-42.95 42.95 0 23.72 19.23 42.95 42.95 42.95 23.72 0 42.95-19.23 42.95-42.95z"/>
			</g>
			<g id="-e-sigea no bg">
				<path id="&lt;Compound Path&gt;" fill-rule="evenodd" class="s0" d="m47.92 55.03c0.11-0.57 0.24-1.07 0.31-1.57 0.17-1.3 0.26-2.62 0.48-3.91 0.08-0.5 0.3-1.1 0.66-1.42 1.72-1.51 3.64-2.71 5.89-3.28 1.1-0.28 2.18-0.05 3.24 0.27 0.53 0.16 1.23 0.22 1.53 0.59 0.27 0.33 0.12 1.02 0.14 1.55q0.06 1.57 0.08 3.14c0.01 1.77-0.7 3.28-1.85 4.56-1.45 1.6-2 3.5-2.17 5.57-0.06 0.69-0.17 1.37-0.19 2.08 0.76-2.47 1.06-5.19 3.75-6.57q-0.42 2.13-0.82 4.27-0.44 2.33-2.04 4.1c-1.88 2.12-3.82 4.19-6.11 5.88-3.11 2.31-6.69 2.32-9.81 0-2.47-1.85-4.54-4.11-6.52-6.47-0.72-0.86-1.1-1.9-1.34-2.97-0.35-1.58-0.64-3.17-0.97-4.86 1.2 0.77 2.12 1.66 2.59 2.91 0.4 1.08 0.67 2.2 0.99 3.3q0.11 0.41 0.31 0.79c-0.42-2.34-0.2-4.84-1.66-6.93q-0.77-1.11-1.61-2.17c-0.94-1.19-1.16-2.57-1.15-4.02q0.02-1.9 0.1-3.79c0.01-0.16 0.11-0.41 0.23-0.45 1.24-0.42 2.46-1 3.81-0.85 0.74 0.07 1.51 0.23 2.17 0.55 1.39 0.68 2.71 1.49 4.06 2.26 1.08 0.61 1.26 1.65 1.34 2.77 0.11 1.55 0.32 3.1 0.48 4.65q0.11-0.01 0.21-0.02 0.11-2.04 0.18-4.09c0.03-1.01 0.07-2.02 0.01-3.02-0.07-1.04-0.53-1.89-1.5-2.42-1.51-0.83-3.05-1.59-4.78-1.92-2.1-0.4-4.04-0.08-5.8 1.17-0.09 0.06-0.19 0.1-0.36 0.2-0.01-1.03 0.23-1.92 0.76-2.73 0.9-1.35 2.29-1.99 3.75-2.51 1.66-0.6 3.3-1.25 4.74-2.3 0.09-0.07 0.2-0.11 0.26-0.19 0.65-0.83 1.42-0.69 2.3-0.42q1.91 0.57 3.96 0.88c-0.33-0.28-0.64-0.58-0.99-0.83q-2.48-1.76-4.03-4.38c-0.28-0.46-0.34-0.85 0-1.29q0.55-0.7 1.02-1.46c0.15-0.24 0.29-0.55 0.29-0.83q0.01-2.66-0.03-5.31c0-0.63-0.1-0.71-0.74-0.7q-0.13 0-0.27 0c-1.29 0.05-1.24-0.23-1.15-1.45 0.01-0.17 0.33-0.46 0.53-0.47 0.97-0.06 1.94-0.06 2.92-0.07 0.49 0 0.72 0.29 0.72 0.76 0 2.55 0.04 5.09-0.04 7.64-0.01 0.5-0.41 1.02-0.71 1.47-0.82 1.21-0.99 0.98 0.05 2.23 1.21 1.45 2.56 2.79 3.86 4.19 1.6-1.23 3.13-2.39 4.7-3.59 0.05 0.71 0.12 1.39 0.13 2.06 0.02 1.59 0.86 2.7 2.06 3.61 0.52 0.39 1.07 0.74 1.59 1.13 1.49 1.11 2.56 2.48 2.59 4.51q-0.59-0.39-1.16-0.72c-2.01-1.13-4.12-0.97-6.17-0.26-1.35 0.47-2.61 1.19-3.87 1.87-0.77 0.41-1.17 1.18-1.17 2.02-0.01 2.37 0.06 4.73 0.1 7.1 0 0.02 0.03 0.05 0.12 0.16zm-11.72-7.13c0.22 1 0.75 1.74 1.8 1.81 1.02 0.08 1.69-0.56 2.22-1.46 0.58 0.46 1.12 0.89 1.75 1.38 0-0.28 0.04-0.45-0.01-0.61-0.32-1.08-0.97-1.91-2.1-2.18-1.44-0.35-2.91-0.52-4.38-0.23-0.73 0.14-1.44 0.42-2.25 0.67 0.88 0.99 1.64 1.86 2.41 2.72q0.08-0.06 0.16-0.12-0.26-0.71-0.54-1.46 0.44-0.25 0.94-0.52zm22.43-0.56c-0.47-0.2-0.85-0.4-1.26-0.51-1.81-0.52-3.64-0.4-5.44 0.03-1.18 0.28-2.05 1.55-1.89 2.66q0.81-0.67 1.58-1.32c1.27 2.35 3.58 1.73 4.16-0.23q0.43 0.23 0.84 0.45-0.27 0.72-0.53 1.4 0.1 0.06 0.2 0.13c0.76-0.85 1.52-1.7 2.34-2.61zm-6.98 15.65q-1.57-0.65-3.15-1.33c-0.61-0.27-1.22-0.32-1.8 0.04-0.47 0.28-0.92 0.26-1.37-0.01-0.54-0.33-1.08-0.28-1.64-0.04q-1.3 0.53-2.6 1.03-0.39 0.14-0.8 0.26c0.31 0.74 0.51 0.86 1.21 0.72q0.44-0.09 0.89-0.2c0.91-0.23 1.83-0.33 2.77-0.13 0.44 0.09 0.92 0.17 1.34 0.07 1.29-0.29 2.53-0.08 3.78 0.23 0.88 0.21 0.97 0.15 1.37-0.64zm-2.05-6.97c-0.06 0.34-0.14 0.65-0.16 0.96-0.02 0.39-0.24 0.5-0.57 0.48-0.88-0.08-1.63 0.23-2.3 0.75-0.41 0.33-0.79 0.29-1.21-0.01-0.65-0.46-1.34-0.85-2.19-0.75-0.52 0.07-0.7-0.21-0.77-0.66-0.03-0.23-0.09-0.45-0.16-0.81-0.48 0.6-0.67 1.13-0.6 1.73 0.08 0.67 0.52 1.18 1.09 1.14 0.92-0.05 1.62 0.31 2.29 0.88 0.61 0.52 0.99 0.55 1.59 0.03 0.76-0.66 1.62-0.89 2.58-0.88 0.48 0 0.77-0.27 0.97-0.66 0.36-0.71 0.14-1.62-0.56-2.2zm-7.09 8.86c2.2 2.89 5.08 2.43 6.94-0.04-2.36 0.83-4.65 0.89-6.94 0.04z"/>
				<path id="&lt;Compound Path&gt;" fill-rule="evenodd" class="s0" d="m59.9 39.41c-0.61-0.46-1.17-0.86-1.7-1.28-0.14-0.11-0.28-0.32-0.28-0.48 0-1.15-0.02-2.31 0.07-3.46 0.02-0.37 0.25-0.8 0.52-1.06q2.04-1.95 4.14-3.82c0.42-0.38 0.67-0.82 0.81-1.36q0.95-3.72 1.92-7.42c0.4-1.55 1.27-2.23 2.88-2.19 0.46 0.01 0.94 0.03 1.4 0.12q1.61 0.33 2.01 1.94 0.94 3.77 1.89 7.54 0.12 0.41 0.22 0.83c0.15 0.63 0.37 1.1 1.03 1.45 1.23 0.65 1.53 2.21 0.81 3.38-0.72 1.14-2.22 1.48-3.37 0.75-1.14-0.72-1.57-2.31-0.72-3.4 0.6-0.76 0.62-1.41 0.33-2.23-0.21-0.61-0.32-1.26-0.46-1.89-0.07-0.31-0.22-0.44-0.55-0.44q-2.14-0.01-4.27-0.04c-0.53 0-0.88 0.13-0.96 0.75-0.07 0.55-0.28 1.08-0.42 1.62q-0.24 0.99-1.02 1.68-2 1.82-3.94 3.7c-0.18 0.18-0.32 0.49-0.33 0.74-0.03 1.5-0.01 2.99-0.01 4.57zm8.63-14.92q0 0 0 0 0.76 0 1.52 0c0.63-0.02 0.7-0.11 0.54-0.7q-0.32-1.2-0.63-2.4c-0.26-0.97-0.42-1.09-1.41-1.1-0.2-0.01-0.43-0.02-0.59 0.06-0.25 0.13-0.58 0.3-0.65 0.52-0.32 1.01-0.56 2.04-0.83 3.06-0.11 0.41 0.09 0.55 0.43 0.56q0.81 0.01 1.62 0zm5.92 7.7c-0.01-0.42-0.48-0.88-0.89-0.87-0.46 0-0.89 0.48-0.87 0.98 0.01 0.5 0.42 0.88 0.92 0.86 0.43-0.02 0.85-0.5 0.84-0.97z"/>
				<path id="&lt;Compound Path&gt;" fill-rule="evenodd" class="s0" d="m59.88 16.3c-0.69-0.85-1.06-1.68-0.69-2.68 0.38-1.05 1.28-1.65 2.43-1.61 1.01 0.04 1.97 0.81 2.25 1.81 0.29 1.02-0.14 2.02-1.09 2.65q-0.7 0.49-1.35 1.05c-1.17 1-2.53 1.24-3.95 0.8-0.98-0.3-1.88-0.86-2.81-1.31-0.71-0.34-1.41-0.71-2.13-1.03-0.66-0.29-1.6 0.42-1.53 1.19 0.09 0.99 0.06 1.99 0.01 2.98-0.03 0.57 0.2 0.73 0.71 0.72q1.89-0.04 3.79 0c0.32 0.01 0.83 0.15 0.91 0.35 0.14 0.41 0.09 0.91 0.01 1.35-0.02 0.13-0.41 0.27-0.62 0.27q-1.95 0.01-3.9-0.02c-0.77-0.01-0.88 0.08-0.89 0.84 0 0.97 0.05 1.95-0.01 2.92-0.08 1.23 0.84 1.8 1.97 1.41 0.79-0.27 1.52-0.73 2.3-1.06q0.84-0.36 1.73-0.57c0.47-0.12 0.75 0.14 0.78 0.63 0.01 0.26 0.05 0.51 0.01 0.76-0.02 0.14-0.18 0.37-0.29 0.38-1.05 0.1-1.85 0.76-2.76 1.16-0.67 0.3-1.35 0.61-2.06 0.76-1.84 0.38-3.68-1.13-3.69-3q-0.04-5.15-0.01-10.3c0-1.57 1.2-2.76 2.78-2.87 0.73-0.05 1.4 0.07 2.03 0.43q1.5 0.86 2.99 1.73c0.79 0.46 1.63 0.54 2.51 0.44 0.17-0.02 0.33-0.1 0.57-0.18zm1.65-1.01c0.49 0.01 0.89-0.35 0.9-0.8 0.01-0.46-0.41-0.91-0.87-0.93-0.45-0.02-0.88 0.42-0.89 0.89 0 0.48 0.36 0.83 0.86 0.84z"/>
				<path id="&lt;Compound Path&gt;" fill-rule="evenodd" class="s0" d="m70.1 36.93c2.01 0.2 3.7 1.27 5.1 2.88 0.33 0.39 0.66 0.69 1.19 0.83 1.12 0.31 1.76 1.44 1.62 2.67-0.13 1.07-1.06 1.97-2.17 2.08-1.1 0.12-2.17-0.58-2.49-1.66-0.24-0.78-0.11-1.54 0.33-2.22 0.18-0.27 0.2-0.47-0.02-0.71-0.9-0.96-1.92-1.69-3.22-1.97-0.53-0.12-0.97-0.04-1.38 0.38-1.47 1.54-2.97 3.05-4.47 4.57-0.46 0.47-0.52 0.96-0.07 1.44 0.71 0.74 1.48 1.42 2.22 2.14 0.88 0.85 1.78 1.71 2 3q0.08 0.59 0.07 1.19 0.02 2.44-0.02 4.88c-0.01 0.53 0.1 0.89 0.58 1.21 0.89 0.57 1.12 1.5 0.92 2.48-0.18 0.93-0.78 1.57-1.7 1.86-1.03 0.33-2.23-0.2-2.78-1.22-0.54-0.99-0.33-2.44 0.58-3.04 0.63-0.42 0.72-0.88 0.69-1.57q-0.11-2.4-0.08-4.82c0.01-0.75-0.22-1.36-0.78-1.87q-1.29-1.2-2.58-2.39c-1.05-0.95-1.37-2.15-1.09-3.48 0.1-0.44 0.42-0.88 0.75-1.22 1.57-1.62 3.18-3.21 4.76-4.81 0.53-0.54 1.17-0.68 2.04-0.63zm-2.21 23.56c0.46 0.02 0.91-0.4 0.93-0.87 0.02-0.48-0.38-0.94-0.84-0.96-0.46-0.02-0.89 0.39-0.92 0.88-0.02 0.5 0.35 0.93 0.83 0.95zm8.62-17.51c0.01-0.46-0.42-0.92-0.87-0.93-0.44-0.02-0.88 0.43-0.89 0.9-0.01 0.47 0.41 0.92 0.86 0.93 0.46 0 0.89-0.43 0.9-0.9z"/>
				<path id="&lt;Compound Path&gt;" fill-rule="evenodd" class="s0" d="m24.53 30.87c1.74 1.74 3.42 3.43 5.11 5.1 0.28 0.27 0.42 0.54 0.4 0.94-0.03 0.68-0.01 1.37-0.01 2.07q-2.1-2.07-4.16-4.12c-1.19-1.18-2.34-2.41-3.58-3.54-1.03-0.95-2.31-1.53-3.64-2.03 0.39 0.6 0.45 1.23 0.28 1.88-0.28 1.03-1.27 1.77-2.32 1.77-1.1-0.01-2.07-0.73-2.35-1.75-0.3-1.1 0.16-2.35 1.12-2.85q1-0.53 2.08-0.88c1.04-0.33 2.02 0.01 2.97 0.45 0.7 0.33 1.36 0.75 2.08 1.02 1.2 0.46 2.29-0.44 2.13-1.71-0.08-0.65-0.51-1.03-1.05-1.29-0.84-0.4-1.72-0.74-2.56-1.14-0.98-0.47-1.82-1.08-2.17-2.2-0.61-2 0.72-4.04 2.8-4.15q1.54-0.06 3.07 0.1c0.67 0.06 0.86 0.35 0.88 1.01q0.02 0.68-0.02 1.35c-0.03 0.57-0.44 0.64-0.89 0.65-0.45 0.01-0.81-0.13-0.81-0.64-0.01-0.51-0.27-0.67-0.72-0.65-0.47 0.02-0.94 0.03-1.4 0.1-0.54 0.08-0.94 0.39-1.05 0.94-0.13 0.58 0.04 1.1 0.56 1.41 0.45 0.27 0.93 0.46 1.4 0.69 0.75 0.36 1.52 0.67 2.23 1.08 2.37 1.34 2.36 4.79 0.01 6.16-0.11 0.06-0.21 0.13-0.39 0.23zm-7.93 0.48c0.54 0 0.91-0.38 0.89-0.93-0.01-0.5-0.42-0.9-0.9-0.88-0.49 0.02-0.88 0.46-0.86 0.99 0.02 0.48 0.38 0.83 0.87 0.82z"/>
				<path id="&lt;Compound Path&gt;" fill-rule="evenodd" class="s0" d="m35.88 37.39c0-0.79 0.03-1.47-0.01-2.15-0.02-0.26-0.14-0.57-0.32-0.75-1.58-1.55-3.16-3.12-4.81-4.6-0.85-0.75-0.99-1.67-1-2.67q-0.02-4.64 0.02-9.27c0.01-0.69-0.1-1.13-0.78-1.5-1.01-0.53-1.36-1.69-1.02-2.76 0.35-1.07 1.26-1.7 2.43-1.67 1.1 0.02 2.01 0.73 2.28 1.81q0.29 1.2-0.57 2.14c-0.18 0.21-0.34 0.53-0.34 0.8q-0.04 5.47 0.01 10.94c0.01 0.34 0.28 0.73 0.54 0.99q2.46 2.44 4.97 4.83c0.32 0.32 0.4 0.65 0.46 1.09 0.15 1.13-0.25 1.89-1.26 2.37-0.18 0.09-0.33 0.22-0.6 0.4zm-5.59-22.1c0.5 0.01 0.85-0.33 0.85-0.82 0.01-0.51-0.35-0.92-0.84-0.93-0.43-0.02-0.9 0.44-0.92 0.89-0.01 0.47 0.39 0.86 0.91 0.86z"/>
				<path id="&lt;Path&gt;" class="s0" d="m42.26 28.94c-0.42 0.54-0.81 1.03-1.22 1.54-0.67-0.53-1.3-1.06-1.96-1.55-0.56-0.42-1.16-0.79-1.73-1.19q-1.33-0.92-1.34-2.52-0.03-3.9 0-7.8c0.01-1.79 1.65-3.48 3.43-3.54 1.86-0.07 3.71-0.08 5.57-0.1 0.57-0.01 0.79 0.18 0.82 0.76q0.04 0.92 0 1.84c-0.02 0.39-0.22 0.64-0.65 0.64q-0.32 0-0.65 0.02c-0.36 0.01-0.59-0.14-0.62-0.52-0.04-0.6-0.36-0.76-0.93-0.72-0.83 0.05-1.66 0.01-2.49 0.02-1.57 0.01-2.49 0.9-2.51 2.47-0.02 1.93 0.05 3.87-0.04 5.79-0.05 1.23 0.37 2.05 1.39 2.7 1.01 0.65 1.94 1.43 2.93 2.16z"/>
				<path id="&lt;Compound Path&gt;" fill-rule="evenodd" class="s0" d="m27.04 44.09c-0.35-0.39-0.63-0.71-0.93-1.01q-1.78-1.85-3.55-3.72c-0.38-0.4-0.79-0.62-1.38-0.58-0.93 0.06-1.87 0.05-2.81 0.1-1 0.05-1.49 0.85-2.06 1.5-0.08 0.08 0.02 0.34 0.07 0.51 0.38 1.21-0.04 2.36-1.1 2.97-0.99 0.57-2.22 0.34-3.02-0.61-0.65-0.76-0.7-1.65-0.32-2.53 0.39-0.9 1.12-1.42 2.1-1.46 0.45-0.02 0.8-0.13 1.08-0.47q0.17-0.17 0.35-0.33c0.95-0.88 1.95-1.61 3.33-1.56 1.06 0.04 2.13-0.05 3.17 0.08 0.53 0.07 1.1 0.4 1.5 0.77 1.23 1.14 2.39 2.35 3.56 3.56 0.15 0.16 0.27 0.44 0.26 0.65-0.04 0.66-0.15 1.31-0.25 2.13zm-12.04-2.42c-0.01-0.48-0.43-0.91-0.89-0.91-0.46 0-0.88 0.43-0.88 0.91 0.01 0.49 0.48 0.96 0.93 0.93 0.49-0.02 0.85-0.43 0.84-0.93z"/>
				<path id="&lt;Compound Path&gt;" fill-rule="evenodd" class="s0" d="m24.61 45.15c0.53 0.49 0.97 0.9 1.44 1.34-0.84 0.79-1.64 1.57-2.47 2.31-1.03 0.9-1.51 2-1.47 3.38 0.04 1.66-0.01 3.33-0.04 4.99-0.01 0.39 0.19 0.56 0.48 0.75 1.18 0.77 1.46 2.36 0.64 3.52-0.76 1.08-2.31 1.31-3.4 0.49-1.27-0.95-1.25-2.98 0.06-3.92 0.37-0.25 0.47-0.52 0.46-0.93-0.01-1.83 0.02-3.65-0.01-5.47-0.01-1.31 0.35-2.47 1.25-3.41 1-1.06 2.06-2.06 3.06-3.05zm-3.3 15.75c0.47-0.01 0.86-0.44 0.84-0.95-0.01-0.46-0.47-0.91-0.9-0.89-0.47 0.03-0.87 0.47-0.86 0.95 0.01 0.47 0.45 0.89 0.92 0.89z"/>
				<path id="&lt;Path&gt;" class="s0" d="m26.86 50.11c-0.42 2.86 0.82 5.03 2.79 6.89 0.29 0.28 0.41 0.54 0.39 0.93-0.03 0.63-0.01 1.26-0.01 2.04-0.33-0.35-0.58-0.62-0.84-0.88q-0.9-0.94-1.81-1.86c-1.58-1.59-2.23-4.45-0.75-6.72q0.12-0.2 0.23-0.4z"/>
			</g>
		</g>
	</g>
</svg>