<svg version="1.2" xmlns="http://www.w3.org/2000/svg" viewBox="0 0 68 62" width="68" height="62">
	<style>
		.s0 { fill: #58a6ff } 
	</style>
	<g id="Layer 1">
		<g id="-e-tide logo">
			<g id="-e-tide no bg">
				<g id="&lt;Group&gt;">
					<path id="&lt;Compound Path&gt;" fill-rule="evenodd" class="s0" d="m48.96 46.02q-0.42 2.13-0.82 4.26-0.44 2.33-2.03 4.1c-1.89 2.11-3.82 4.17-6.11 5.87-3.1 2.3-6.68 2.31-9.78-0.01-2.47-1.84-4.54-4.1-6.51-6.45-0.72-0.87-1.11-1.9-1.35-2.97-0.34-1.58-0.63-3.16-0.96-4.85 1.2 0.76 2.12 1.66 2.58 2.91 0.4 1.07 0.67 2.19 1 3.29q0.11 0.41 0.3 0.79c-0.42-2.34-0.19-4.83-1.65-6.92q-0.78-1.1-1.61-2.16c-0.94-1.19-1.16-2.57-1.15-4.02q0.02-1.89 0.1-3.78c0.01-0.16 0.11-0.41 0.23-0.45 1.24-0.42 2.46-0.99 3.8-0.85 0.74 0.08 1.52 0.23 2.17 0.55 1.39 0.68 2.71 1.49 4.05 2.25 1.08 0.62 1.26 1.65 1.34 2.77 0.11 1.55 0.32 3.09 0.48 4.64q0.1-0.01 0.21-0.01 0.1-2.04 0.18-4.09c0.03-1 0.07-2.02 0-3.02-0.06-1.04-0.53-1.88-1.49-2.41-1.51-0.83-3.05-1.59-4.77-1.91-2.1-0.4-4.03-0.08-5.79 1.16-0.09 0.06-0.18 0.1-0.36 0.2-0.01-1.03 0.23-1.92 0.76-2.72 0.9-1.35 2.29-1.99 3.74-2.51 1.66-0.59 3.29-1.25 4.73-2.3 0.09-0.06 0.2-0.1 0.26-0.19 0.65-0.82 1.42-0.68 2.3-0.41q1.91 0.57 3.95 0.88c-0.33-0.28-0.64-0.58-0.99-0.83q-2.47-1.76-4.02-4.38c-0.27-0.45-0.34-0.84 0-1.28q0.54-0.7 1.02-1.46c0.15-0.24 0.28-0.55 0.29-0.83 0.01-1.23 0-2.72-0.01-3.97-0.93-0.39-1.58-1.31-1.58-2.38 0-1.42 1.15-2.57 2.57-2.57 1.42 0 2.58 1.15 2.58 2.57 0 1.07-0.65 1.99-1.58 2.38q0.01 2.18-0.04 4.37c-0.02 0.5-0.41 1.02-0.72 1.47-0.82 1.21-0.99 0.97 0.06 2.22 1.21 1.45 2.55 2.79 3.85 4.18 1.59-1.22 3.12-2.38 4.69-3.58 0.05 0.72 0.12 1.39 0.13 2.06 0.02 1.59 0.86 2.7 2.06 3.6 0.51 0.4 1.06 0.74 1.58 1.13 1.49 1.11 2.56 2.47 2.59 4.5q-0.59-0.38-1.16-0.72c-2.01-1.13-4.11-0.96-6.16-0.25-1.34 0.47-2.61 1.18-3.87 1.86-0.76 0.41-1.16 1.17-1.16 2.02-0.01 2.36 0.06 4.72 0.1 7.08 0 0.02 0.03 0.05 0.12 0.16 0.12-0.57 0.24-1.06 0.31-1.56 0.17-1.3 0.26-2.61 0.48-3.91 0.08-0.5 0.3-1.1 0.66-1.41 1.72-1.51 3.63-2.71 5.87-3.28 1.1-0.28 2.18-0.05 3.24 0.27 0.53 0.16 1.22 0.22 1.53 0.59 0.27 0.33 0.12 1.02 0.14 1.55q0.06 1.57 0.08 3.14c0.01 1.76-0.7 3.27-1.85 4.54-1.44 1.6-2 3.49-2.17 5.56-0.06 0.69-0.17 1.37-0.19 2.08 0.76-2.47 1.06-5.18 3.75-6.56zm-15.82-33.49c0 0.5 0.41 0.9 0.9 0.9 0.5 0 0.9-0.4 0.9-0.9 0-0.49-0.4-0.9-0.9-0.9-0.49 0-0.9 0.41-0.9 0.9zm-2.3 35.15c0.08 0.67 0.52 1.18 1.09 1.15 0.91-0.06 1.62 0.3 2.29 0.87 0.61 0.52 0.98 0.55 1.58 0.03 0.76-0.66 1.62-0.88 2.58-0.87 0.48 0 0.76-0.27 0.96-0.66 0.37-0.71 0.15-1.63-0.55-2.2-0.06 0.34-0.14 0.65-0.16 0.96-0.03 0.38-0.25 0.5-0.57 0.47-0.88-0.07-1.62 0.23-2.29 0.76-0.42 0.33-0.79 0.28-1.21-0.02-0.65-0.46-1.35-0.84-2.19-0.74-0.52 0.07-0.7-0.21-0.77-0.66-0.03-0.23-0.09-0.45-0.16-0.81-0.48 0.6-0.66 1.13-0.6 1.72zm-1.42-9.44c0.59 0.47 1.12 0.89 1.75 1.39 0-0.28 0.04-0.46 0-0.61-0.33-1.08-0.98-1.91-2.1-2.18-1.44-0.35-2.91-0.52-4.38-0.23-0.73 0.14-1.43 0.42-2.25 0.67 0.88 0.99 1.65 1.85 2.42 2.72q0.08-0.07 0.15-0.13-0.26-0.71-0.54-1.46 0.45-0.24 0.94-0.51c0.22 0.99 0.75 1.73 1.8 1.81 1.02 0.07 1.69-0.57 2.21-1.47zm9.21 16.56c-2.35 0.83-4.63 0.9-6.92 0.04 2.2 2.89 5.07 2.43 6.92-0.04zm2.2-1.84q-1.57-0.65-3.14-1.33c-0.61-0.27-1.22-0.32-1.8 0.04-0.47 0.28-0.91 0.26-1.36-0.01-0.54-0.33-1.08-0.28-1.64-0.04q-1.3 0.53-2.6 1.03-0.39 0.14-0.79 0.25c0.3 0.75 0.5 0.86 1.2 0.73q0.45-0.09 0.89-0.2c0.91-0.23 1.83-0.33 2.77-0.14 0.43 0.09 0.91 0.17 1.33 0.08 1.29-0.29 2.52-0.08 3.77 0.23 0.88 0.21 0.98 0.14 1.37-0.64zm4.13-15q0.42 0.23 0.83 0.45-0.27 0.73-0.53 1.4 0.1 0.07 0.2 0.13c0.76-0.85 1.52-1.7 2.34-2.61-0.47-0.19-0.85-0.39-1.26-0.51-1.81-0.51-3.63-0.39-5.43 0.04-1.17 0.28-2.05 1.55-1.88 2.66q0.8-0.68 1.57-1.33c1.27 2.35 3.58 1.73 4.16-0.23z"/>
					<path id="&lt;Path&gt;" class="s0" d="m51.78 19.37q-2.08 1.86-4.1 3.78c-0.27 0.26-0.5 0.69-0.52 1.06-0.09 1.15-0.07 2.31-0.07 3.46 0.01 0.16 0.14 0.36 0.28 0.47 0.53 0.43 1.09 0.82 1.69 1.28 0-1.57-0.01-3.06 0.02-4.56 0-0.25 0.15-0.56 0.33-0.73q1.71-1.67 3.47-3.28-0.6-0.7-1.1-1.48z"/>
					<path id="&lt;Compound Path&gt;" fill-rule="evenodd" class="s0" d="m59.25 26.95c2 0.2 3.69 1.27 5.08 2.87 0.34 0.39 0.67 0.69 1.2 0.83 1.11 0.31 1.75 1.43 1.61 2.67-0.12 1.07-1.05 1.96-2.17 2.07-1.09 0.12-2.16-0.57-2.48-1.65-0.23-0.78-0.11-1.54 0.34-2.22 0.17-0.27 0.19-0.47-0.03-0.71-0.9-0.95-1.92-1.69-3.22-1.97-0.52-0.11-0.96-0.04-1.37 0.39-1.47 1.53-2.97 3.04-4.46 4.55-0.46 0.47-0.52 0.96-0.07 1.44 0.71 0.74 1.48 1.42 2.22 2.13 0.88 0.86 1.77 1.71 1.99 3.01q0.08 0.58 0.07 1.18 0.02 2.43-0.02 4.87c-0.01 0.53 0.1 0.89 0.58 1.2 0.89 0.58 1.11 1.5 0.92 2.48-0.18 0.93-0.78 1.57-1.7 1.86-1.03 0.33-2.23-0.2-2.78-1.22-0.53-0.99-0.32-2.43 0.58-3.03 0.63-0.42 0.72-0.88 0.69-1.57q-0.1-2.4-0.07-4.81c0-0.75-0.23-1.36-0.78-1.87q-1.29-1.19-2.58-2.38c-1.04-0.95-1.37-2.15-1.08-3.48 0.09-0.44 0.42-0.88 0.74-1.21 1.57-1.62 3.17-3.2 4.75-4.81 0.53-0.53 1.17-0.67 2.04-0.62zm-2.2 23.51c0.45 0.02 0.9-0.4 0.92-0.87 0.02-0.47-0.38-0.93-0.84-0.95-0.46-0.02-0.89 0.39-0.91 0.88-0.03 0.5 0.34 0.92 0.83 0.94zm8.59-17.47c0.02-0.46-0.41-0.92-0.86-0.94-0.44-0.01-0.88 0.43-0.89 0.9-0.01 0.48 0.41 0.93 0.86 0.93 0.45 0.01 0.88-0.42 0.89-0.89z"/>
					<path id="&lt;Compound Path&gt;" fill-rule="evenodd" class="s0" d="m16.04 33.82c-0.35-0.39-0.63-0.71-0.92-1.02q-1.79-1.84-3.55-3.7c-0.39-0.41-0.8-0.63-1.38-0.59-0.93 0.07-1.87 0.05-2.8 0.1-1 0.05-1.49 0.85-2.06 1.5-0.08 0.08 0.02 0.34 0.07 0.51 0.38 1.21-0.04 2.35-1.1 2.97-0.98 0.57-2.22 0.33-3.01-0.61-0.65-0.76-0.7-1.65-0.32-2.53 0.38-0.9 1.12-1.41 2.09-1.45 0.46-0.02 0.8-0.13 1.08-0.47q0.17-0.18 0.36-0.34c0.93-0.87 1.93-1.6 3.31-1.55 1.06 0.04 2.13-0.05 3.17 0.08 0.53 0.06 1.09 0.4 1.49 0.77 1.23 1.14 2.39 2.35 3.56 3.55 0.15 0.16 0.27 0.44 0.26 0.65-0.04 0.66-0.15 1.31-0.25 2.13zm-12.02-2.42c-0.01-0.48-0.43-0.91-0.89-0.91-0.46 0-0.88 0.43-0.87 0.91 0.01 0.49 0.47 0.95 0.92 0.93 0.49-0.02 0.85-0.43 0.84-0.93z"/>
					<path id="&lt;Compound Path&gt;" fill-rule="evenodd" class="s0" d="m13.57 35.15c0.52 0.49 0.96 0.9 1.43 1.34-0.84 0.79-1.63 1.57-2.46 2.3-1.03 0.91-1.51 2-1.47 3.38 0.05 1.66 0 3.32-0.04 4.97-0.01 0.4 0.19 0.56 0.48 0.75 1.18 0.78 1.46 2.36 0.64 3.52-0.76 1.08-2.31 1.31-3.39 0.49-1.27-0.95-1.25-2.98 0.06-3.91 0.36-0.26 0.46-0.52 0.46-0.93-0.02-1.82 0.01-3.64-0.01-5.46-0.02-1.31 0.34-2.47 1.24-3.41 1-1.05 2.06-2.05 3.06-3.04zm-3.3 15.72c0.47-0.01 0.86-0.44 0.84-0.94-0.01-0.47-0.46-0.91-0.9-0.89-0.47 0.02-0.87 0.46-0.85 0.94 0.01 0.47 0.45 0.9 0.91 0.89z"/>
					<path id="&lt;Path&gt;" class="s0" d="m16.09 40.1c-0.42 2.86 0.82 5.02 2.78 6.88 0.3 0.27 0.41 0.54 0.39 0.93-0.03 0.63-0.01 1.26-0.01 2.03-0.33-0.35-0.58-0.62-0.83-0.88q-0.9-0.93-1.81-1.85c-1.57-1.58-2.23-4.45-0.75-6.71q0.13-0.19 0.23-0.4z"/>
				</g>
				<path id="&lt;Compound Path&gt;" fill-rule="evenodd" class="s0" d="m19.17 26.11v2.81l-8.43-8.37h-2.79c-0.17 1.25-1.25 2.22-2.55 2.22-1.42 0-2.57-1.15-2.57-2.58 0-1.42 1.15-2.57 2.57-2.57 0.92 0 1.73 0.48 2.19 1.21l4.21 0.07zm-12.87-5.92c0-0.49-0.4-0.9-0.9-0.9-0.5 0-0.9 0.41-0.9 0.9 0 0.5 0.4 0.9 0.9 0.9 0.5 0 0.9-0.4 0.9-0.9z"/>
				<path id="&lt;Compound Path&gt;" fill-rule="evenodd" class="s0" d="m24.89 27.22v-2.69c0 0-5.96-5.51-6.06-5.9-0.09-0.39-1.54-10.32-1.54-10.32l-4.61 1.49q0.01 0.15 0.01 0.3c0 1.42-1.15 2.57-2.57 2.57-1.42 0-2.57-1.15-2.57-2.57 0-1.42 1.15-2.58 2.57-2.58 0.65 0 1.24 0.24 1.69 0.64l8.66-3.16 0.02 0.04c0.14-1.28 1.23-2.28 2.55-2.28 1.42 0 2.58 1.16 2.58 2.58 0 1.42-1.16 2.57-2.58 2.57-0.79 0-1.5-0.36-1.97-0.92-0.39 0.06-1.67 0.29-1.8 0.6-0.16 0.38 1.36 10.3 1.36 10.3l6.09 5.84 0.14 2.2zm-2.75-21.89c0 0.5 0.4 0.9 0.9 0.9 0.49 0 0.89-0.4 0.89-0.9 0-0.5-0.4-0.9-0.89-0.9-0.5 0-0.9 0.4-0.9 0.9zm-11.13 4.76c0-0.5-0.4-0.9-0.9-0.9-0.49 0-0.89 0.4-0.89 0.9 0 0.5 0.4 0.9 0.89 0.9 0.5 0 0.9-0.4 0.9-0.9z"/>
				<path id="&lt;Compound Path&gt;" fill-rule="evenodd" class="s0" d="m31.74 18.2c0.06 0.23-1.13 1.47-1.13 1.47 0 0-2.41 0.14-3 0-0.58-0.14-0.65-0.95-0.65-1.52 0-0.57 1.69-0.49 1.69-0.49l0.01-12.02c-0.94-0.38-1.61-1.31-1.61-2.39 0-1.42 1.15-2.57 2.57-2.57 1.42 0 2.58 1.15 2.58 2.57 0 1.11-0.7 2.05-1.68 2.41v12.03h1.22zm-3.02-14.95c0 0.5 0.41 0.9 0.9 0.9 0.5 0 0.9-0.4 0.9-0.9 0-0.49-0.4-0.9-0.9-0.9-0.49 0-0.9 0.41-0.9 0.9z"/>
				<path id="&lt;Compound Path&gt;" fill-rule="evenodd" class="s0" d="m48.66 15.29c-0.89 2.01-2.44 3.56-4.32 4.24l-3.03 0.18c0 0 0.31-1.7 0.71-1.95h1.54c0 0 3.81-1.26 3.99-6.76 0 0-0.65-1.64-3.92-4.73 0 0-3.01-1.26-5.14-1.56-0.47 0.6-1.2 0.99-2.02 0.99-1.42 0-2.58-1.15-2.58-2.58 0-1.42 1.16-2.57 2.58-2.57 1.32 0 2.41 1 2.56 2.28 0.98 0.3 5 1.52 5.16 1.58 0.18 0.07 4.82 4.57 4.98 5.1 0.17 0.53 0.39 3.77-0.51 5.78zm-11.29-12.17c0-0.49-0.4-0.9-0.9-0.9-0.5 0-0.9 0.41-0.9 0.9 0 0.5 0.4 0.9 0.9 0.9 0.5 0 0.9-0.4 0.9-0.9z"/>
				<path id="&lt;Path&gt;" class="s0" d="m39.72 19.76h-0.56c-0.41 0-0.74-0.33-0.74-0.74v-11.92c0-0.41 0.33-0.74 0.74-0.74h0.56c0.41 0 0.74 0.33 0.74 0.74v11.92c0 0.41-0.33 0.74-0.74 0.74z"/>
				<path id="&lt;Compound Path&gt;" fill-rule="evenodd" class="s0" d="m65.5 22.04c0 1.42-1.16 2.58-2.58 2.58-1.08 0-2-0.67-2.38-1.61-0.82 0.01-3.82 0.03-5.34-0.05-1.76-0.09-2.83-1.67-2.83-1.67 0 0-0.53-0.72-0.59-1.92-0.07-1.2 0.8-3.44 1.45-7.12 0.65-3.69 1.76-4.34 3.02-4.45 1-0.1 2.84 0.34 3.52 0.52 0.46-0.69 1.24-1.14 2.13-1.14 1.42 0 2.58 1.15 2.58 2.58 0 1.42-1.16 2.57-2.58 2.57-1.27 0-2.33-0.93-2.54-2.15-0.43-0.16-1-0.36-1.45-0.51-0.85-0.27-1.76-0.11-2.24 0.63-0.49 0.74-0.68 3.55-0.68 3.55 0 0 4.52 0.6 5.13 1.02 0.6 0.41 0.02 1.76-0.17 1.87-0.18 0.12-5.54-1.04-5.54-1.04 0 0-0.85 3.32-0.78 3.9 0.07 0.58 1.41 1.34 1.41 1.34l5.55 0.02c0.4-0.88 1.3-1.49 2.33-1.49 1.42 0 2.58 1.15 2.58 2.57zm-4.5-12.28c0 0.49 0.41 0.89 0.9 0.89 0.5 0 0.9-0.4 0.9-0.89 0-0.5-0.4-0.9-0.9-0.9-0.49 0-0.9 0.4-0.9 0.9zm2.82 12.28c0-0.49-0.4-0.9-0.9-0.9-0.49 0-0.9 0.41-0.9 0.9 0 0.5 0.41 0.9 0.9 0.9 0.5 0 0.9-0.4 0.9-0.9z"/>
			</g>
		</g>
	</g>
</svg>